<svg id="a2dc2cdf-1bf5-494f-a451-ad070a0e78e5" data-name="Layer 1" xmlns="http://www.w3.org/2000/svg" viewBox="0 0 64 165.34"><path d="M14.94,66.3a1.77,1.77,0,0,0-1.21.69,1.67,1.67,0,0,0-.36,1.32,1.71,1.71,0,0,0,.69,1.21L29,81.05l-15,11.52a1.84,1.84,0,0,0-.33,2.56,1.66,1.66,0,0,0,1.21.67,1.79,1.79,0,0,0,1.32-.34L32,83.35,47.7,95.47A1.82,1.82,0,0,0,49,95.8a1.68,1.68,0,0,0,1.24-.68,1.85,1.85,0,0,0,.35-1.1,1.79,1.79,0,0,0-.69-1.45L35,81.05l15-11.53a1.8,1.8,0,0,0,.68-1.44A1.83,1.83,0,0,0,50.25,67a1.84,1.84,0,0,0-2.56-.33L32,78.78,16.26,66.66A1.71,1.71,0,0,0,14.94,66.3Z" style="fill:#f0f8ca"/><path d="M13.36,49.69A1.77,1.77,0,0,0,13.89,51a1.74,1.74,0,0,0,1.28.52H48.81a1.78,1.78,0,0,0,1.8-1.81,1.79,1.79,0,0,0-1.8-1.81H15.17a1.81,1.81,0,0,0-1.81,1.81Z" style="fill:#f0f8ca"/><path d="M14.5.13a1.88,1.88,0,0,0-1,1,1.68,1.68,0,0,0,0,1.37,1.72,1.72,0,0,0,1,1L44.3,16.53,14.44,29.59a1.77,1.77,0,0,0-.94,1,1.67,1.67,0,0,0,0,1.4,1.78,1.78,0,0,0,1,.95,1.81,1.81,0,0,0,1.37,0L49.53,18.2a1.73,1.73,0,0,0,1.08-1.67,1.67,1.67,0,0,0-1.08-1.65L15.89.15A1.81,1.81,0,0,0,14.5.13Z" style="fill:#f0f8ca"/><path d="M11.78,132.13a1.27,1.27,0,0,0-.84,1.27,1.33,1.33,0,0,0,.84,1.3l33.6,14.68a1.35,1.35,0,0,0,1.06,0,1.29,1.29,0,0,0,.77-.73,1.47,1.47,0,0,0,.13-.56,1.32,1.32,0,0,0-.84-1.3L15.83,133.4l28.71-12.55v16.06a1.34,1.34,0,0,0,.4,1,1.37,1.37,0,0,0,1,.41,1.4,1.4,0,0,0,1.4-1.4v-18.2a1.34,1.34,0,0,0-.64-1.17,1.29,1.29,0,0,0-1.32-.12Z" style="fill:#f0f8ca"/><path d="M0,133.34a32,32,0,1,0,32-32A32,32,0,0,0,0,133.34Zm60.66,0A28.66,28.66,0,1,1,32,104.68,28.69,28.69,0,0,1,60.66,133.34Z" style="fill:#f0f8ca"/></svg>