<?xml version="1.0" encoding="utf-8"?>
<!-- Generator: Adobe Illustrator 25.0.0, SVG Export Plug-In . SVG Version: 6.00 Build 0)  -->
<svg version="1.1" id="f4cb3e3c-0c57-4a03-b858-6811b3857f6f"
	 xmlns="http://www.w3.org/2000/svg" xmlns:xlink="http://www.w3.org/1999/xlink" x="0px" y="0px" viewBox="0 0 256 256"
	 style="enable-background:new 0 0 256 256;" xml:space="preserve">
<style type="text/css">
	.st0{fill:#F9FFDC;}
</style>
<g>
	<path class="st0" d="M192.9,255.9H28.4c-5,0-9.1-4.1-9.1-9.1v-201c0-5,4.1-9.1,9.1-9.1h164.5c5,0,9.1,4.1,9.1,9.1v201
		C202.1,251.8,198,255.9,192.9,255.9z M37.6,237.7h146.2V54.9H37.6V237.7z"/>
	<path class="st0" d="M229.5,219.4c-5,0-9.1-4.1-9.1-9.1V18.3H65c-5,0-9.1-4.1-9.1-9.1s4.1-9.1,9.1-9.1h164.5c5,0,9.1,4.1,9.1,9.1
		v201C238.6,215.3,234.5,219.4,229.5,219.4z"/>
</g>
</svg>
