<?xml version="1.0" encoding="utf-8"?>
<!-- Generator: Adobe Illustrator 24.2.0, SVG Export Plug-In . SVG Version: 6.00 Build 0)  -->
<svg version="1.1" id="Layer_11" xmlns="http://www.w3.org/2000/svg" xmlns:xlink="http://www.w3.org/1999/xlink" x="0px" y="0px"
	 viewBox="0 0 790.55 306" style="enable-background:new 0 0 790.55 306;" xml:space="preserve">
<style type="text/css">
	.st0{fill:#F0F8CA;}
</style>
<g>
	<path class="st0" d="M473.55,71.44c-0.31-2.38-1.42-4.33-3.3-5.79c-1.89-1.47-4.02-2.05-6.32-1.73c-2.39,0.31-4.34,1.42-5.8,3.3
		l-55.1,71.58l-55.11-71.58c-1.46-1.87-3.41-2.98-5.78-3.29c-2.3-0.31-4.46,0.26-6.45,1.73c-1.9,1.48-2.97,3.46-3.17,5.78
		c-0.31,2.29,0.22,4.4,1.6,6.33l57.92,75.19l-57.96,75.12c-1.35,1.87-1.88,4.02-1.58,6.31c0.21,2.42,1.28,4.4,3.22,5.91
		c1.55,1.14,3.33,1.72,5.3,1.72c2.8,0,5.11-1.1,6.9-3.32l55.1-71.58l55.13,71.61c1.76,2.18,4.07,3.28,6.88,3.28
		c1.88,0,3.62-0.58,5.21-1.75c1.88-1.46,2.99-3.41,3.3-5.79c0.31-2.39-0.27-4.56-1.73-6.44l-57.92-75.07l57.92-75.19
		C473.28,75.88,473.87,73.75,473.55,71.44z"/>
	<path class="st0" d="M552.95,63.9c-2.39,0-4.46,0.85-6.13,2.52c-1.67,1.67-2.52,3.73-2.52,6.13v160.81c0,2.4,0.85,4.46,2.52,6.13
		c1.67,1.67,3.73,2.52,6.13,2.52c2.39,0,4.46-0.85,6.13-2.52c1.67-1.67,2.52-3.73,2.52-6.13V72.55c0-2.39-0.85-4.45-2.52-6.13
		C557.4,64.74,555.34,63.9,552.95,63.9z"/>
	<path class="st0" d="M789.93,69.34c-0.92-2.14-2.47-3.75-4.68-4.8c-2.21-0.94-4.45-0.95-6.58-0.03c-2.21,0.84-3.81,2.39-4.74,4.57
		L711.51,211.8L649.07,69.03c-1.03-2.16-2.66-3.68-4.77-4.49c-2.21-0.95-4.45-0.95-6.72,0.03c-2.17,1.03-3.69,2.66-4.51,4.84
		c-0.83,2.18-0.78,4.4,0.15,6.58l70.31,160.85c1.54,3.38,4.3,5.16,7.99,5.16c3.71,0,6.44-1.8,7.88-5.19l70.42-160.82
		C790.74,73.82,790.8,71.6,789.93,69.34z"/>
</g>
<path class="st0" d="M230.98,216.15L160.66,55.56c-1.45-3.42-4.19-5.23-7.92-5.23c-3.71,0-6.48,1.79-8.04,5.21L74.48,216.17
	c-0.94,2.19-0.99,4.42-0.15,6.61c0.85,2.22,2.4,3.83,4.57,4.76c1.15,0.52,2.33,0.79,3.51,0.79c3.71,0,6.48-1.79,8.04-5.21
	l62.29-142.42l56.93,130.25h-73.72c-2.41,0-4.48,0.85-6.16,2.53c-1.68,1.68-2.53,3.75-2.53,6.16c0,2.41,0.85,4.48,2.53,6.16
	c1.68,1.68,3.75,2.53,6.16,2.53h87c3.09,0,5.61-1.36,7.27-3.94C231.95,221.8,232.22,218.95,230.98,216.15z"/>
<path class="st0" d="M153,306C68.64,306,0,237.37,0,153S68.64,0,153,0c84.37,0,153,68.64,153,153S237.37,306,153,306z M153,15.95
	C77.43,15.95,15.95,77.43,15.95,153S77.43,290.05,153,290.05c75.57,0,137.05-61.48,137.05-137.05S228.57,15.95,153,15.95z"/>
</svg>
