<?xml version="1.0" encoding="utf-8"?>
<!-- Generator: Adobe Illustrator 24.2.0, SVG Export Plug-In . SVG Version: 6.00 Build 0)  -->
<svg version="1.1" id="Layer_1" xmlns="http://www.w3.org/2000/svg" xmlns:xlink="http://www.w3.org/1999/xlink" x="0px" y="0px"
	 viewBox="0 0 84.5 91.8" style="enable-background:new 0 0 84.5 91.8;" xml:space="preserve">
<style type="text/css">
	.st0{fill:#F9FFDC;}
</style>
<g>
	<path class="st0" d="M76.5,15.6v64.1c0,6.6-5.4,12.1-12.1,12.1H20.1C13.5,91.8,8,86.4,8,79.7V15.6H1.6c-2.2,0-2.2-3.3,0-3.3h22.2V7
		c0-3.9,3.1-7,7-7h22.8c3.9,0,7,3.2,7,7v5.3h22.2c2.2,0,2.2,3.3,0,3.3C82.8,15.6,76.5,15.6,76.5,15.6z M27.2,12.3h30.2V7
		c0-2-1.7-3.7-3.7-3.7H30.9c-2,0-3.7,1.7-3.7,3.7C27.2,7,27.2,12.3,27.2,12.3z M60.7,72.9c0,2.2-3.3,2.2-3.3,0V30.7
		c0-2.2,3.3-2.2,3.3,0V72.9z M43.9,72.9c0,2.2-3.3,2.2-3.3,0V30.7c0-2.2,3.3-2.2,3.3,0V72.9z M27.2,72.9c0,2.2-3.3,2.2-3.3,0V30.7
		c0-2.2,3.3-2.2,3.3,0V72.9z M73.1,15.6H11.3v64.1c0,4.8,3.9,8.8,8.8,8.8h44.3c4.8,0,8.8-3.9,8.8-8.8V15.6z"/>
</g>
</svg>
