<?xml version="1.0" encoding="utf-8"?>
<!-- Generator: Adobe Illustrator 24.2.0, SVG Export Plug-In . SVG Version: 6.00 Build 0)  -->
<svg version="1.1" id="c7679864-b181-4cb7-b245-a637ee1a3e0d"
	 xmlns="http://www.w3.org/2000/svg" xmlns:xlink="http://www.w3.org/1999/xlink" x="0px" y="0px" viewBox="0 0 190.4 190.4"
	 style="enable-background:new 0 0 190.4 190.4;" xml:space="preserve">
<style type="text/css">
	.st0{fill:#F0F8CA;}
</style>
<path class="st0" d="M98.82,35.06c-0.71-1.67-1.97-2.5-3.78-2.5c-1.82,0-3.1,0.83-3.86,2.5l-43.69,99.94
	c-0.45,1.06-0.48,2.12-0.07,3.18c0.4,1.06,1.14,1.82,2.2,2.27c0.55,0.26,1.11,0.38,1.67,0.38c1.82,0,3.1-0.83,3.86-2.5l39.9-91.23
	l37.32,85.4H84.58c-1.16,0-2.15,0.4-2.96,1.21c-0.81,0.81-1.21,1.79-1.21,2.96s0.4,2.15,1.21,2.96c0.81,0.81,1.79,1.21,2.96,1.21
	h54.13c1.51,0,2.68-0.63,3.48-1.89c0.86-1.26,0.98-2.58,0.38-3.94L98.82,35.06z"/>
<path class="st0" d="M95.2,0C42.71,0,0,42.71,0,95.2s42.71,95.2,95.2,95.2c52.5,0,95.2-42.71,95.2-95.2S147.7,0,95.2,0z
	 M95.2,180.48c-47.02,0-85.28-38.25-85.28-85.28S48.18,9.92,95.2,9.92s85.28,38.25,85.28,85.28S142.22,180.48,95.2,180.48z"/>
</svg>
