<svg id="f8d7deb9-1050-40a3-9ce1-3e26cae7f16f" data-name="2338fba0-a4e5-4ce3-9728-722fabb38851" xmlns="http://www.w3.org/2000/svg" viewBox="0 0 256 256"><path d="M87.9,22c-21.4,0-40.7,4.2-55.2,11.4s-25,18.1-25,31.4v128.3c0,13.2,10.4,24,24.9,31.3s33.9,11.5,55.3,11.5c18,0,34.5-3.1,48-8.4a77.46,77.46,0,1,0,34.9-146.6c-.9,0-1.8.1-2.8.1V64.94c0-13.4-10.4-24.2-24.9-31.4S109.3,22,87.9,22Zm0,10.7c20,0,38,4.1,50.6,10.4s19,14.3,19,21.6c-2.5,11.4-10.8,17.6-19,21.6-12.6,6.3-30.7,10.4-50.6,10.4s-38-4.1-50.6-10.4c-9.3-4.8-17.8-12.2-19-21.6,0-7.3,6.4-15.3,19-21.6S67.9,32.74,87.9,32.74ZM18.4,86.64a65,65,0,0,0,14.3,9.6c14.5,7.2,33.9,11.4,55.2,11.4a158.18,158.18,0,0,0,26.4-2.3,77.26,77.26,0,0,0-15,23.1c-3.7.3-7.5.6-11.4.6-20,0-38-4.2-50.6-10.4s-19-14.2-19-21.6l.1-10.4Zm152.4,5a66.8,66.8,0,1,1-66.8,66.8A66.73,66.73,0,0,1,170.8,91.64Zm26.8,43.8-.3-.9M18.4,118.64a61.73,61.73,0,0,0,14.2,9.5c14.5,7.3,33.9,11.5,55.3,11.5,2.6,0,5.1-.1,7.7-.3a79.09,79.09,0,0,0-2.3,19c0,.9.1,1.7.1,2.6-1.8.1-3.6.1-5.4.1-20,0-38-4.2-50.6-10.4s-19-14.2-19-21.6v-10.4Zm0,32.1a61.73,61.73,0,0,0,14.2,9.5c14.5,7.3,33.9,11.5,55.3,11.5,2.2,0,4.4-.1,6.5-.2a77.6,77.6,0,0,0,6.8,20.9c-4.3.4-8.7.7-13.3.7-20,0-38-4.2-50.6-10.4s-19-14.2-19-21.6v-10.4Zm0,32.1a61.73,61.73,0,0,0,14.2,9.5c14.5,7.3,33.9,11.5,55.3,11.5a150.38,150.38,0,0,0,19.3-1.2,76.31,76.31,0,0,0,17,17.5,130,130,0,0,1-36.3,5c-19.9,0-38-4.2-50.6-10.4s-19-14.2-19-21.6v-10.3Z" style="fill:#f0f8ca"/></svg>